<svg id="visual" viewBox="0 0 1920 1080" width="1920" height="1080" xmlns="http://www.w3.org/2000/svg" xmlns:xlink="http://www.w3.org/1999/xlink" version="1.1"><rect x="0" y="0" width="1920" height="1080" fill="#f6f6f6"></rect><defs><linearGradient id="grad1_0" x1="43.8%" y1="100%" x2="100%" y2="0%"><stop offset="14.444444444444446%" stop-color="#f6f6f6" stop-opacity="1"></stop><stop offset="85.55555555555554%" stop-color="#f6f6f6" stop-opacity="1"></stop></linearGradient></defs><defs><linearGradient id="grad2_0" x1="0%" y1="100%" x2="56.3%" y2="0%"><stop offset="14.444444444444446%" stop-color="#f6f6f6" stop-opacity="1"></stop><stop offset="85.55555555555554%" stop-color="#f6f6f6" stop-opacity="1"></stop></linearGradient></defs><g transform="translate(1920, 1080)"><path d="M-486 0C-462.2 -60.8 -438.4 -121.6 -405.6 -168C-372.8 -214.4 -330.9 -246.3 -296.3 -296.3C-261.6 -346.3 -234.2 -414.4 -186 -449C-137.8 -483.6 -68.9 -484.8 0 -486L0 0Z" fill="#a9d6e5"></path></g><g transform="translate(0, 0)"><path d="M486 0C481.2 65.4 476.4 130.7 449 186C421.6 241.2 371.4 286.4 321.7 321.7C272 357.1 222.7 382.6 169.1 408.4C115.6 434.1 57.8 460 0 486L0 0Z" fill="#a9d6e5"></path></g></svg>