<svg id="visual" viewBox="0 0 675 900" width="675" height="900" xmlns="http://www.w3.org/2000/svg" xmlns:xlink="http://www.w3.org/1999/xlink" version="1.1"><rect x="0" y="0" width="675" height="900" fill="#f6f6f6"></rect><defs><linearGradient id="grad1_0" x1="0%" y1="100%" x2="100%" y2="0%"><stop offset="30%" stop-color="#f6f6f6" stop-opacity="1"></stop><stop offset="70%" stop-color="#f6f6f6" stop-opacity="1"></stop></linearGradient></defs><defs><linearGradient id="grad2_0" x1="0%" y1="100%" x2="100%" y2="0%"><stop offset="30%" stop-color="#f6f6f6" stop-opacity="1"></stop><stop offset="70%" stop-color="#f6f6f6" stop-opacity="1"></stop></linearGradient></defs><g transform="translate(675, 900)"><path d="M-253.1 0C-249.8 -26.2 -246.5 -52.4 -237.8 -77.3C-229 -102.1 -214.7 -125.5 -196.6 -142.8C-178.4 -160.1 -156.4 -171.3 -137 -188.5C-117.5 -205.7 -100.6 -229 -78.2 -240.7C-55.8 -252.5 -27.9 -252.8 0 -253.1L0 0Z" fill="#a9d6e5"></path></g><g transform="translate(0, 0)"><path d="M253.1 0C251.5 26.8 250 53.7 240.7 78.2C231.5 102.7 214.7 124.9 194.2 141.1C173.7 157.2 149.6 167.2 128.1 176.4C106.7 185.5 88 193.7 67.1 206.4C46.1 219 23.1 236.1 0 253.1L0 0Z" fill="#a9d6e5"></path></g></svg>